# xmcd
#
# Track frame offsets: 
#        150
#        12823
#        31314
#        44968
#        60702
#        73050
#        90973
#        113621
#        126391
#        140929
#        158752
#        174936
#        187518
#        199592
#
# Disc length: 2832 seconds
#
# Revision: 0
# Processed by: cddbd v1.4PL0 Copyright (c) Steve Scherf et al.
# Submitted via: ExactAudioCopy v0.90b3
#
DISCID=ba0b0e0e
DTITLE=Don Rigsby - Empty Old Mailbox
DYEAR=2000
DGENRE=Bluegrass
TTITLE0=I Won't Be There
TTITLE1=Bluestone Mountain
TTITLE2=Empty Old Mail Box
TTITLE3=Son Of A Gun
TTITLE4=These Ole' Blues
TTITLE5=Poor Little Rich Man
TTITLE6=Dust To Dust
TTITLE7=Louise
TTITLE8=Don't Sell The Land
TTITLE9=Bad Day In Akron
TTITLE10=If I'd Had A Mother Like You
TTITLE11=I Am A Little Scholar
TTITLE12=Here I Am In Love Again
TTITLE13=Precious Love
EXTD=
EXTT0=
EXTT1=
EXTT2=
EXTT3=
EXTT4=
EXTT5=
EXTT6=
EXTT7=
EXTT8=
EXTT9=
EXTT10=
EXTT11=
EXTT12=
EXTT13=
PLAYORDER=
